<svg xmlns="http://www.w3.org/2000/svg" viewBox="0 0 429.88 63.07"><defs><style>.cls-1{fill:#fff;}</style></defs><g id="Layer_2" data-name="Layer 2"><g id="Layer_1-2" data-name="Layer 1"><path class="cls-1" d="M16.36,2.49V38.23q0,8.7,6.25,8.7a6.25,6.25,0,0,0,4.53-1.82A5.9,5.9,0,0,0,29,40.72a6.23,6.23,0,0,0-1.75-4.48A5.74,5.74,0,0,0,23,34.42,7.62,7.62,0,0,0,18.85,36V18c1.92-.18,3.38-.27,4.37-.27A21.44,21.44,0,0,1,39,24.36a21.93,21.93,0,0,1,6.59,16,21.71,21.71,0,0,1-6.7,16.14,22.59,22.59,0,0,1-16.44,6.56,22.64,22.64,0,0,1-9.56-2.15,21.38,21.38,0,0,1-7.67-5.77Q0,48.85,0,38.84V2.49Z"/><path class="cls-1" d="M52.79,18.59H69.15V43.21q0,3.72,3.1,3.72t3.06-3.72V18.59H91.67V42.9A19.84,19.84,0,0,1,86,57.23a18.49,18.49,0,0,1-13.82,5.84,18.61,18.61,0,0,1-15-6.78q-4.43-5.3-4.42-14.7Z"/><path class="cls-1" d="M137.59,19.46,124.21,45.92H139.6V63.07h-42l13.3-26.55H97.05V19.46Z"/><path class="cls-1" d="M181.94,19.46,168.56,45.92H184V63.07h-42l13.3-26.55H141.4V19.46Z"/><path class="cls-1" d="M302.17,43h-24.8a12.05,12.05,0,0,1-.57-3.46,12.24,12.24,0,0,1,.79-4.29h8.31q-.87-4.84-5.47-4.85a5.93,5.93,0,0,0-5,2.6,10.9,10.9,0,0,0-1.93,6.67,11.63,11.63,0,0,0,1.86,6.87,5.72,5.72,0,0,0,4.88,2.62A6.47,6.47,0,0,0,285,46.75L294.3,58a22.9,22.9,0,0,1-14.48,5.12,22.33,22.33,0,0,1-16.31-6.52,21.77,21.77,0,0,1-6.61-16.14,21.89,21.89,0,0,1,6.68-16.18A22.36,22.36,0,0,1,280,17.63,22,22,0,0,1,302.35,40C302.35,40.62,302.29,41.64,302.17,43Z"/><path class="cls-1" d="M335.8,2.49h16.36V38.84q0,10-5.25,16.31a21.38,21.38,0,0,1-7.67,5.77,23.32,23.32,0,0,1-26-4.41,21.66,21.66,0,0,1-6.7-16.1,22,22,0,0,1,6.65-16,21.39,21.39,0,0,1,15.75-6.74c1,0,2.42.09,4.37.27V36a6.5,6.5,0,0,0-4-1.57,5.9,5.9,0,0,0-4.36,1.86,6.21,6.21,0,0,0-1.81,4.48A5.85,5.85,0,0,0,325,45.11a6.27,6.27,0,0,0,4.51,1.82q6.28,0,6.29-8.7Z"/><path class="cls-1" d="M377.13,19.46V63.07H360.78V19.46ZM369,0a8,8,0,0,1,5.75,2.34,7.42,7.42,0,0,1,2.43,5.53,7.4,7.4,0,0,1-2.3,5.6,9,9,0,0,1-11.76,0,7.36,7.36,0,0,1-2.3-5.6,7.42,7.42,0,0,1,2.43-5.53A8,8,0,0,1,369,0Z"/><path class="cls-1" d="M411,45.79V62.72a22.06,22.06,0,0,1-3.68.35,22.39,22.39,0,0,1-16.4-6.48,21.85,21.85,0,0,1-6.56-16.22,22.57,22.57,0,0,1,22.74-22.7q10.59,0,16.69,6.19t6.1,16.9V62.15H413.52V41.94a8.45,8.45,0,0,0-1.68-5.51,5.56,5.56,0,0,0-4.53-2A6.42,6.42,0,0,0,401,40.72a6.12,6.12,0,0,0,1.71,4.46A5.76,5.76,0,0,0,407,46.93,7.44,7.44,0,0,0,411,45.79Z"/><path class="cls-1" d="M246.8,18.53a16.19,16.19,0,0,0-13.12-6q-6.44,0-12.86,6.12-5.77-6.12-13-6.12a16,16,0,0,0-12,5.14,17.35,17.35,0,0,0-4.94,12.48v5a17.35,17.35,0,0,1,4.94-12.48,16,16,0,0,1,12-5.14c4.84,0,9.3,2.87,13.15,7,4.29-4.08,8.45-7,12.74-7a16.19,16.19,0,0,1,13.12,6q3.88,4.63,3.89,13.51V32Q250.69,23.16,246.8,18.53Z"/><path class="cls-1" d="M250.91,63.07H234.44V39.36a8.52,8.52,0,0,0-.58-3.78,2.13,2.13,0,0,0-2.07-1.06q-2.78,0-2.77,4.89V63.07H212.54V39.36a8.49,8.49,0,0,0-.59-3.78,2.2,2.2,0,0,0-2.1-1.06q-2.73,0-2.73,4.89V63.07H190.64V36a17.47,17.47,0,0,1,5-12.58,16.15,16.15,0,0,1,12.07-5.18q7.32,0,13.13,6.17,6.48-6.16,13-6.17a16.33,16.33,0,0,1,13.21,6c2.62,3.12,3.92,7.65,3.92,13.62Z"/><circle class="cls-1" cx="328.94" cy="40.53" r="3"/></g></g></svg>